<?xml version="1.0" encoding="iso-8859-1"?>
<!-- Generator: Adobe Illustrator 20.0.0, SVG Export Plug-In . SVG Version: 6.00 Build 0)  -->
<svg version="1.1" id="Layer_1" xmlns="http://www.w3.org/2000/svg" xmlns:xlink="http://www.w3.org/1999/xlink" x="0px" y="0px"
	 viewBox="0 0 775.316 165.317" style="enable-background:new 0 0 775.316 165.317;" xml:space="preserve">
<g>
	<path style="fill:#0B141F;" d="M103.635,42.562c0-6.582-5.355-11.938-11.938-11.938c-2.928,0-5.689,1.059-7.869,2.977
		c-7.762-4.967-18.062-8.16-29.451-8.591l6.789-19.294l16.96,4.055c0.012,5.367,4.379,9.729,9.749,9.729
		c5.375,0,9.75-4.373,9.75-9.75S93.25,0,87.875,0c-4.081,0-7.578,2.522-9.03,6.087L58.752,1.283l-8.341,23.696
		c-11.864,0.223-22.627,3.435-30.678,8.556c-2.168-1.877-4.901-2.911-7.795-2.911C5.356,30.625,0,35.98,0,42.562
		c0,4.072,2.096,7.826,5.49,10.016c-0.206,1.191-0.324,2.401-0.324,3.629c0,11.652,9.559,21.829,23.684,27.202
		c-7.774,4.761-12.747,11.947-12.747,19.986c0,8.785,5.9,16.895,15.783,21.699l0.327-0.674c0.456,2.042,0.989,3.955,1.598,5.744
		h-3.941c-3.447,0-6.238,1.098-8.291,3.26c-3.781,3.982-3.508,10.119-3.496,10.381l0.094,1.777h66.717l0.061-1.812
		c0.012-0.268,0.184-6.586-3.635-10.541c-1.965-2.031-4.572-3.064-7.752-3.064h-4.016c0.609-1.741,1.137-3.61,1.603-5.573
		l0.034,0.065c9.34-4.84,14.914-12.789,14.914-21.262c0-7.698-4.561-14.613-11.773-19.367c0-0.171,0.001-0.342,0.001-0.513
		c14.277-5.344,23.959-15.58,23.959-27.308c0-1.192-0.11-2.367-0.304-3.525C101.474,50.508,103.635,46.698,103.635,42.562z"/>
	<circle style="fill:#FFFFFF;" cx="87.875" cy="9.75" r="6"/>
	<path style="fill:#FFFFFF;" d="M3.75,42.562c0-4.516,3.674-8.188,8.188-8.188c1.661,0,3.247,0.495,4.592,1.41
		c-4.723,3.662-8.204,8.062-9.993,12.907C4.794,47.155,3.75,44.938,3.75,42.562z"/>
	<path style="fill:#FFFFFF;" d="M51.729,83.707c-23.607,0-42.812-12.336-42.812-27.5s19.205-27.5,42.812-27.5
		s42.812,12.336,42.812,27.5S75.336,83.707,51.729,83.707z"/>
	<path style="fill:#FFFFFF;" d="M96.962,48.81c-1.766-4.862-5.23-9.28-9.947-12.958c1.365-0.957,2.983-1.477,4.682-1.477
		c4.516,0,8.188,3.672,8.188,8.188C99.885,45,98.786,47.27,96.962,48.81z"/>
	<g>
		<g>
			<path style="fill:#FFFFFF;" d="M123.768,86.559c0-3.377,1.98-5.473,5.127-5.473c3.146,0,5.129,2.096,5.129,5.473v5.246h0.232
				c2.33-4.779,8.041-10.719,13.984-10.719c3.613,0,5.711,2.328,5.711,5.24c0,2.916-2.098,4.779-6.41,5.594
				c-6.059,1.049-13.518,5.596-13.518,17.598v29.484c0,3.381-1.982,5.479-5.129,5.479c-3.147,0-5.127-2.098-5.127-5.479V86.559z"/>
			<path style="fill:#FFFFFF;" d="M128.895,145.73c-3.873,0-6.377-2.641-6.377-6.729V86.559c0-4.084,2.504-6.723,6.377-6.723
				c3.875,0,6.379,2.639,6.379,6.723v1.211c3.176-4.268,8.076-7.934,12.967-7.934c4.098,0,6.961,2.668,6.961,6.49
				c0,2.471-1.289,5.662-7.428,6.822c-3.771,0.654-12.5,3.549-12.5,16.369v29.484C135.273,143.09,132.77,145.73,128.895,145.73z
				 M128.895,82.336c-2.463,0-3.877,1.539-3.877,4.223v52.443c0,2.689,1.414,4.229,3.877,4.229c2.465,0,3.879-1.539,3.879-4.229
				v-29.484c0-15.131,11.141-18.236,14.555-18.828c4.814-0.91,5.373-2.928,5.373-4.363c0-2.424-1.752-3.99-4.461-3.99
				c-5.502,0-10.832,5.859-12.861,10.016l-0.342,0.703h-2.031l-0.232-1.25v-5.246C132.773,83.875,131.359,82.336,128.895,82.336z"/>
		</g>
		<g>
			<path style="fill:#FFFFFF;" d="M166.996,116.744c0,10.605,6.76,18.879,18.295,18.879c13.637,0,17.133-8.389,20.979-8.389
				c1.865,0,3.73,1.631,3.73,4.543c0,5.014-12.703,12.703-24.824,12.703c-19.812,0-28.436-15.266-28.436-31.699
				c0-16.779,10.488-31.695,27.854-31.695c16.898,0,26.686,15.266,26.686,30.182c0,3.611-1.279,5.477-5.707,5.477H166.996z
				 M201.027,109.051c0-8.855-5.131-19.111-16.434-19.111c-12.703-0.467-17.248,9.674-17.598,19.111H201.027z"/>
			<path style="fill:#FFFFFF;" d="M185.176,145.73c-21.91,0-29.686-17.748-29.686-32.949c0-16.371,9.996-32.945,29.104-32.945
				c18.146,0,27.936,16.195,27.936,31.432c0,4.65-2.145,6.727-6.957,6.727h-37.293c0.521,9.852,7.225,16.379,17.012,16.379
				c8.477,0,12.766-3.35,15.896-5.795c1.854-1.449,3.318-2.594,5.082-2.594c2.412,0,4.98,2.031,4.98,5.793
				C211.25,138.168,197.115,145.73,185.176,145.73z M184.594,82.336c-17.465,0-26.604,15.316-26.604,30.445
				c0,14.719,7.141,30.449,27.186,30.449c11.691,0,23.574-7.348,23.574-11.453c0-2.162-1.25-3.293-2.48-3.293
				c-0.904,0-2.068,0.91-3.543,2.062c-3.225,2.52-8.098,6.326-17.436,6.326c-11.689,0-19.545-8.088-19.545-20.129v-1.25h39.826
				c3.791,0,4.457-1.361,4.457-4.227C210.029,97.242,201.115,82.336,184.594,82.336z M202.277,110.301h-36.58l0.051-1.297
				c0.371-10.051,5.5-20.775,18.893-20.315c11.562,0,17.637,10.244,17.637,20.361V110.301z M168.326,107.801h31.412
				c-0.441-7.104-4.635-16.611-15.145-16.611c-0.313-0.01-0.576-0.014-0.836-0.014C171.178,91.176,168.768,102.613,168.326,107.801z
				"/>
		</g>
		<g>
			<path style="fill:#FFFFFF;" d="M261.615,135.975h-0.234c-2.914,5.594-8.391,8.506-16.547,8.506
				c-16.781,0-26.455-15.266-26.455-31.699c0-16.43,9.674-31.695,26.455-31.695c8.156,0,13.867,4.543,16.547,8.387h0.234V59.291
				c0-3.381,1.981-5.479,5.129-5.479c3.145,0,5.125,2.098,5.125,5.479v79.711c0,3.381-1.98,5.479-5.125,5.479
				c-3.148,0-5.129-2.098-5.129-5.479V135.975z M245.65,89.939c-12.59,0-17.018,12.352-17.018,22.842
				c0,10.488,4.428,22.842,17.018,22.842c12.584,0,17.014-12.354,17.014-22.842C262.664,102.291,258.234,89.939,245.65,89.939z"/>
			<path style="fill:#FFFFFF;" d="M266.744,145.73c-3.652,0-6.088-2.346-6.354-6.039c-3.418,4.012-8.633,6.039-15.557,6.039
				c-18.188,0-27.705-16.574-27.705-32.949c0-16.371,9.518-32.945,27.705-32.945c6.787,0,12.145,3.029,15.531,6.477V59.291
				c0-4.088,2.504-6.729,6.379-6.729c3.871,0,6.375,2.641,6.375,6.729v79.711C273.119,143.09,270.615,145.73,266.744,145.73z
				 M260.625,134.725h2.006l0.234,1.25v3.027c0,2.689,1.412,4.229,3.879,4.229c2.463,0,3.875-1.539,3.875-4.229V59.291
				c0-2.69-1.412-4.229-3.875-4.229c-2.467,0-3.879,1.539-3.879,4.229v31.432h-1.902l-0.606-0.533
				c-2.648-3.797-8.117-7.854-15.523-7.854c-16.547,0-25.205,15.316-25.205,30.445c0,15.133,8.658,30.449,25.205,30.449
				c7.641,0,12.693-2.562,15.439-7.834L260.625,134.725z M245.65,136.873c-13.482,0-18.268-12.979-18.268-24.092
				s4.785-24.092,18.268-24.092c13.48,0,18.264,12.979,18.264,24.092S259.131,136.873,245.65,136.873z M245.65,91.189
				c-11.637,0-15.768,11.631-15.768,21.592s4.131,21.592,15.768,21.592c11.635,0,15.764-11.631,15.764-21.592
				S257.285,91.189,245.65,91.189z"/>
		</g>
		<g>
			<path style="fill:#FFFFFF;" d="M326.4,135.975h-0.234c-2.912,5.594-8.391,8.506-16.547,8.506
				c-16.781,0-26.455-15.266-26.455-31.699c0-16.43,9.674-31.695,26.455-31.695c8.156,0,13.867,4.543,16.547,8.387h0.234V59.291
				c0-3.381,1.98-5.479,5.129-5.479c3.147,0,5.125,2.098,5.125,5.479v79.711c0,3.381-1.978,5.479-5.125,5.479
				c-3.148,0-5.129-2.098-5.129-5.479V135.975z M310.436,89.939c-12.59,0-17.018,12.352-17.018,22.842
				c0,10.488,4.428,22.842,17.018,22.842c12.586,0,17.014-12.354,17.014-22.842C327.449,102.291,323.022,89.939,310.436,89.939z"/>
			<path style="fill:#FFFFFF;" d="M331.529,145.73c-3.652,0-6.086-2.346-6.353-6.039c-3.418,4.012-8.633,6.039-15.557,6.039
				c-18.188,0-27.705-16.574-27.705-32.949c0-16.371,9.518-32.945,27.705-32.945c6.787,0,12.145,3.029,15.531,6.477V59.291
				c0-4.088,2.506-6.729,6.379-6.729c3.871,0,6.375,2.641,6.375,6.729v79.711C337.904,143.09,335.4,145.73,331.529,145.73z
				 M325.41,134.725h2.006l0.234,1.25v3.027c0,2.689,1.414,4.229,3.879,4.229c2.463,0,3.875-1.539,3.875-4.229V59.291
				c0-2.69-1.412-4.229-3.875-4.229c-2.465,0-3.879,1.539-3.879,4.229v31.432h-1.9l-0.607-0.533
				c-2.648-3.797-8.117-7.854-15.523-7.854c-16.547,0-25.205,15.316-25.205,30.445c0,15.133,8.658,30.449,25.205,30.449
				c7.645,0,12.695-2.562,15.439-7.834L325.41,134.725z M310.436,136.873c-13.482,0-18.268-12.979-18.268-24.092
				s4.785-24.092,18.268-24.092c13.48,0,18.264,12.979,18.264,24.092S323.916,136.873,310.436,136.873z M310.436,91.189
				c-11.637,0-15.768,11.631-15.768,21.592s4.131,21.592,15.768,21.592c11.635,0,15.764-11.631,15.764-21.592
				S322.07,91.189,310.436,91.189z"/>
		</g>
		<g>
			<path style="fill:#FFFFFF;" d="M355.756,57.604c3.496,0,6.295,2.795,6.295,6.295c0,3.492-2.799,6.291-6.295,6.291
				s-6.293-2.799-6.293-6.291C349.463,60.398,352.26,57.604,355.756,57.604 M355.756,52.604c-6.225,0-11.293,5.066-11.293,11.295
				c0,6.225,5.068,11.291,11.293,11.291c6.229,0,11.295-5.066,11.295-11.291C367.051,57.67,361.984,52.604,355.756,52.604
				L355.756,52.604z"/>
		</g>
		<g>
			<path style="fill:#FFFFFF;" d="M360.887,139.002c0,3.381-1.982,5.479-5.131,5.479c-3.146,0-5.125-2.098-5.125-5.479V86.559
				c0-3.377,1.979-5.473,5.125-5.473c3.148,0,5.131,2.096,5.131,5.473V139.002z"/>
			<path style="fill:#FFFFFF;" d="M355.756,145.73c-3.871,0-6.375-2.641-6.375-6.729V86.559c0-4.084,2.504-6.723,6.375-6.723
				c3.879,0,6.381,2.639,6.381,6.723v52.443C362.137,143.09,359.635,145.73,355.756,145.73z M355.756,82.336
				c-2.463,0-3.875,1.539-3.875,4.223v52.443c0,2.689,1.412,4.229,3.875,4.229c2.467,0,3.881-1.539,3.881-4.229V86.559
				C359.637,83.875,358.223,82.336,355.756,82.336z"/>
		</g>
		<g>
			<path style="fill:#FFFFFF;" d="M382.324,68.379c0-3.381,1.982-5.477,5.127-5.477c3.146,0,5.127,2.096,5.127,5.477v13.404h4.199
				c3.377,0,5.127,1.631,5.127,4.426c0,2.801-1.75,4.432-5.127,4.432h-4.199v48.361c0,3.381-1.98,5.479-5.127,5.479
				c-3.145,0-5.127-2.098-5.127-5.479V90.641h-4.193c-3.379,0-5.131-1.631-5.131-4.432c0-2.795,1.752-4.426,5.131-4.426h4.193
				V68.379z"/>
			<path style="fill:#FFFFFF;" d="M387.451,145.73c-3.871,0-6.377-2.641-6.377-6.729V91.891h-2.943
				c-3.996,0-6.381-2.125-6.381-5.682c0-3.555,2.385-5.676,6.381-5.676h2.943V68.379c0-4.086,2.506-6.727,6.377-6.727
				c3.875,0,6.377,2.641,6.377,6.727v12.154h2.949c3.992,0,6.377,2.121,6.377,5.676c0,3.557-2.385,5.682-6.377,5.682h-2.949v47.111
				C393.828,143.09,391.326,145.73,387.451,145.73z M378.131,83.033c-3.881,0-3.881,2.391-3.881,3.176c0,0.787,0,3.182,3.881,3.182
				h5.443v49.611c0,2.689,1.414,4.229,3.877,4.229c2.465,0,3.877-1.539,3.877-4.229V89.391h5.449c3.877,0,3.877-2.395,3.877-3.182
				c0-0.785,0-3.176-3.877-3.176h-5.449V68.379c0-2.688-1.412-4.227-3.877-4.227c-2.463,0-3.877,1.539-3.877,4.227v14.654H378.131z"
				/>
		</g>
	</g>
	<g>
		<circle style="fill:#F24A10;" cx="36.937" cy="50.688" r="7.335"/>
	</g>
	<g>
		<circle style="fill:#F24A10;" cx="67.562" cy="50.688" r="7.335"/>
	</g>
	<path style="fill:#FFFFFF;" d="M68.984,85.223c0.542,0.27,1.071,0.551,1.587,0.844c-0.224,34.407-3.674,55.558-18.737,55.558
		c-16.755,0-18.64-26.293-18.745-56.341c0.188-0.095,0.383-0.184,0.574-0.276c5.558,1.576,11.662,2.448,18.065,2.448
		C57.824,87.457,63.643,86.659,68.984,85.223z"/>
	<path style="fill:#FFFFFF;" d="M19.854,103.395c0-6.234,3.647-11.87,9.498-15.904c0.08,12.357,0.507,23.764,2.121,33.129
		C24.159,116.41,19.854,110.101,19.854,103.395z"/>
	<path style="fill:#FFFFFF;" d="M24.299,136.008c1.336-1.41,3.16-2.094,5.572-2.094h5.431c1.531,3.303,3.453,5.983,5.856,7.918
		H21.922C22.115,140.176,22.676,137.715,24.299,136.008z"/>
	<path style="fill:#FFFFFF;" d="M73.568,133.914c2.146,0,3.797,0.623,5.043,1.91c1.678,1.727,2.273,4.289,2.484,6.008H62.168
		c2.385-1.949,4.316-4.631,5.864-7.918H73.568z"/>
	<path style="fill:#FFFFFF;" d="M82.354,103.395c0,6.228-3.769,12.185-10.215,16.372c1.587-9.168,2.06-20.013,2.167-31.211
		C79.303,92.49,82.354,97.692,82.354,103.395z"/>
	<g>
		<path style="fill:#0B141F;" d="M51.643,76.113c-11.957,0-16.74-5.43-16.938-5.66c-0.674-0.787-0.582-1.973,0.205-2.645
			c0.783-0.668,1.957-0.582,2.633,0.193c0.107,0.117,4.1,4.361,14.1,4.361c10.174,0,14.635-4.395,14.68-4.438
			c0.721-0.734,1.906-0.752,2.647-0.031c0.736,0.719,0.764,1.891,0.053,2.635C68.803,70.758,63.539,76.113,51.643,76.113z"/>
	</g>
	<g>
		<path style="fill:#FFFFFF;" d="M432.732,83.692c0-1.875,1.15-3.125,2.761-3.125c1.609,0,2.875,1.25,2.875,3.125v11.625
			c5.06-8.375,12.535-15.75,24.151-15.75c14.146,0,28.521,12.375,28.521,33.125v0.25c0,20.75-14.375,33.375-28.521,33.375
			c-11.731,0-19.321-7.25-24.151-15.25v31.125c0,1.875-1.15,3.125-2.761,3.125c-1.609,0-2.875-1.25-2.875-3.125V83.692z
			 M484.945,113.192v-0.25c0-16.75-10.695-27.5-23.001-27.5c-12.19,0-23.922,11.125-23.922,27.375v0.25
			c0,16.375,11.731,27.375,23.922,27.375C474.71,140.442,484.945,130.317,484.945,113.192z"/>
		<path style="fill:#FFFFFF;" d="M501.731,56.192c0-1.75,1.15-3.125,2.761-3.125c1.609,0,2.875,1.375,2.875,3.125v36.75
			c3.91-7.5,10.465-13.375,21.161-13.375c14.835,0,23.461,11,23.461,26.25v36.375c0,1.875-1.15,3.125-2.761,3.125
			c-1.609,0-2.875-1.25-2.875-3.125v-35.25c0-13.125-6.785-21.75-18.631-21.75c-11.5,0-20.355,9.5-20.355,22.75v34.25
			c0,1.875-1.15,3.125-2.761,3.125c-1.609,0-2.875-1.25-2.875-3.125V56.192z"/>
		<path style="fill:#FFFFFF;" d="M561.3,113.192v-0.25c0-17.875,12.766-33.375,30.247-33.375c17.365,0,30.017,15.25,30.017,33.125
			v0.25c0,17.875-12.766,33.375-30.247,33.375C573.951,146.317,561.3,131.067,561.3,113.192z M615.468,113.192v-0.25
			c0-15.375-10.58-27.625-24.151-27.625c-13.915,0-23.921,12.375-23.921,27.375v0.25c0,15.375,10.58,27.625,24.151,27.625
			C605.462,140.567,615.468,128.192,615.468,113.192z"/>
		<path style="fill:#FFFFFF;" d="M635.131,128.442v-41.75h-6.325c-1.38,0-2.646-1.375-2.646-2.875s1.266-2.75,2.646-2.75h6.325
			v-17.75c0-1.75,1.15-3.125,2.76-3.125c1.61,0,2.875,1.375,2.875,3.125v17.75h18.401c1.38,0,2.646,1.375,2.646,2.875
			s-1.266,2.75-2.646,2.75h-18.401v41.125c0,9.125,4.945,12.375,11.73,12.375c4.025,0,5.866-1.25,6.671-1.25
			c1.265,0,2.53,1.25,2.53,2.75c0,1.25-0.69,2.125-1.841,2.625c-2.3,0.875-4.944,1.625-8.28,1.625
			C642.491,145.942,635.131,140.567,635.131,128.442z"/>
		<path style="fill:#FFFFFF;" d="M665.374,113.192v-0.25c0-17.875,12.766-33.375,30.247-33.375c17.365,0,30.017,15.25,30.017,33.125
			v0.25c0,17.875-12.766,33.375-30.247,33.375C678.025,146.317,665.374,131.067,665.374,113.192z M719.542,113.192v-0.25
			c0-15.375-10.58-27.625-24.151-27.625c-13.915,0-23.921,12.375-23.921,27.375v0.25c0,15.375,10.58,27.625,24.151,27.625
			C709.536,140.567,719.542,128.192,719.542,113.192z"/>
		<path style="fill:#FFFFFF;" d="M732.305,137.817c-0.46-0.375-1.035-1.375-1.035-2.375c0-1.625,1.265-3,2.76-3
			c0.69,0,1.381,0.25,1.841,0.625c6.095,4.75,12.535,7.25,19.551,7.25c7.936,0,14.146-4.75,14.146-12.125v-0.25
			c0-7.5-7.36-10.25-15.525-12.75c-9.546-3-20.126-6.125-20.126-17.5v-0.25c0-10.25,7.935-17.625,19.32-17.625
			c6.325,0,13.341,2.25,18.977,5.75c0.689,0.5,1.495,1.375,1.495,2.75c0,1.625-1.266,3-2.761,3c-0.689,0-1.265-0.25-1.61-0.5
			c-5.06-3.25-10.695-5.25-16.33-5.25c-8.051,0-13.341,4.75-13.341,11.125v0.25c0,7.125,7.936,9.75,16.331,12.375
			c9.43,2.875,19.32,6.625,19.32,17.875v0.25c0,11.375-8.97,18.625-20.24,18.625C747.141,146.067,738.285,142.692,732.305,137.817z"
			/>
	</g>
</g>
</svg>
