<?xml version="1.0" standalone="yes"?>

<svg version="1.1" viewBox="0.0 0.0 551.8608923884515 421.0498687664042" fill="none" stroke="none" stroke-linecap="square" stroke-miterlimit="10" xmlns="http://www.w3.org/2000/svg" xmlns:xlink="http://www.w3.org/1999/xlink"><clipPath id="p.0"><path d="m0 0l551.8609 0l0 421.04987l-551.8609 0l0 -421.04987z" clip-rule="nonzero"></path></clipPath><g clip-path="url(#p.0)"><path fill="#000000" fill-opacity="0.0" d="m0 0l551.8609 0l0 421.04987l-551.8609 0z" fill-rule="nonzero"></path><path fill="#ffffff" d="m138.4087 415.3828l5.7133026 -108.62274l0 0c-122.129776 -39.56958 -172.96117 -127.018585 -117.43308 -202.02881c55.52809 -75.01024 199.24306 -113.03321 332.0171 -87.84247c132.77405 25.190739 211.15439 105.35106 181.07791 185.19014c-30.076416 79.839096 -158.76654 133.2281 -297.30597 123.34184z" fill-rule="nonzero"></path><path stroke="#000000" stroke-width="1.0" stroke-linejoin="round" stroke-linecap="butt" d="m138.4087 415.3828l5.7133026 -108.62274l0 0c-122.129776 -39.56958 -172.96117 -127.018585 -117.43308 -202.02881c55.52809 -75.01024 199.24306 -113.03321 332.0171 -87.84247c132.77405 25.190739 211.15439 105.35106 181.07791 185.19014c-30.076416 79.839096 -158.76654 133.2281 -297.30597 123.34184z" fill-rule="nonzero"></path></g></svg>

